<svg width="24" height="25" viewBox="0 0 24 25" fill="none" xmlns="http://www.w3.org/2000/svg">
<g id="Social Icons / White / Dribbble">
<path id="BG" opacity="0.1" fill-rule="evenodd" clip-rule="evenodd" d="M0 12.2354C0 5.60793 5.37258 0.235352 12 0.235352C18.6274 0.235352 24 5.60793 24 12.2354C24 18.8628 18.6274 24.2354 12 24.2354C5.37258 24.2354 0 18.8628 0 12.2354Z" fill="white"/>
<path id="Path" fill-rule="evenodd" clip-rule="evenodd" d="M18.4 12.2266C18.4 12.6594 18.3559 13.0916 18.2694 13.5129C18.185 13.9242 18.06 14.328 17.8962 14.7141C17.7362 15.0932 17.5378 15.4586 17.3059 15.7994C17.0774 16.138 16.8143 16.4557 16.5252 16.7453C16.2355 17.0336 15.9167 17.2961 15.5783 17.5255C15.2364 17.7557 14.8705 17.9539 14.4911 18.1146C14.1045 18.2775 13.6997 18.4024 13.2888 18.4866C12.8669 18.5734 12.4331 18.6177 11.9997 18.6177C11.5659 18.6177 11.1321 18.5734 10.7109 18.4866C10.2993 18.4024 9.89459 18.2775 9.50832 18.1146C9.12893 17.9539 8.76264 17.7557 8.42076 17.5255C8.0823 17.2961 7.76354 17.0336 7.47446 16.7453C7.18508 16.4557 6.92193 16.138 6.69317 15.7994C6.46253 15.4586 6.26376 15.0932 6.10313 14.7141C5.93936 14.328 5.81405 13.9242 5.72936 13.5129C5.64374 13.0916 5.59998 12.6594 5.59998 12.2266C5.59998 11.7934 5.64371 11.3603 5.72939 10.9399C5.81408 10.5286 5.93938 10.1242 6.10316 9.73877C6.26378 9.35931 6.46256 8.99358 6.69319 8.65279C6.92195 8.3139 7.18511 7.99682 7.47449 7.7069C7.76357 7.41854 8.08233 7.15674 8.42078 6.92769C8.76267 6.69643 9.12895 6.4983 9.50834 6.33726C9.89462 6.17402 10.2993 6.04889 10.7109 5.96527C11.1322 5.87915 11.5659 5.83545 11.9997 5.83545C12.4332 5.83545 12.8669 5.87915 13.2888 5.96527C13.6998 6.04892 14.1045 6.17404 14.4911 6.33726C14.8705 6.49827 15.2364 6.69643 15.5783 6.92769C15.9168 7.15674 16.2356 7.41854 16.5252 7.7069C16.8143 7.99682 17.0775 8.3139 17.3059 8.65279C17.5378 8.99358 17.7362 9.35934 17.8962 9.73877C18.06 10.1242 18.185 10.5286 18.2694 10.9399C18.3559 11.3603 18.4 11.7934 18.4 12.2266ZM9.66766 7.28998C8.14351 8.00869 7.00595 9.4111 6.65124 11.1013C6.79533 11.1025 9.07295 11.1312 11.6971 10.435C10.7512 8.75669 9.74049 7.38706 9.66766 7.28998ZM12.15 11.2754C9.33577 12.1167 6.6353 12.0562 6.53844 12.0524C6.53686 12.1111 6.53405 12.1679 6.53405 12.2266C6.53405 13.6287 7.06376 14.9069 7.93444 15.8734C7.93256 15.8706 9.42828 13.2208 12.3778 12.2684C12.449 12.2447 12.5216 12.2234 12.5934 12.2029C12.4563 11.8927 12.3065 11.5819 12.15 11.2754ZM15.6092 8.13039C14.647 7.28311 13.3835 6.76917 11.9997 6.76917C11.5556 6.76917 11.1246 6.82285 10.7118 6.92208C10.7937 7.03194 11.8203 8.39191 12.755 10.1058C14.8173 9.33372 15.5958 8.15035 15.6092 8.13039ZM12.966 13.1072C12.9538 13.1112 12.9416 13.1147 12.9297 13.1191C9.70494 14.2417 8.65184 16.504 8.64045 16.5287C9.56833 17.2493 10.7321 17.684 11.9997 17.684C12.7566 17.684 13.4776 17.5301 14.1335 17.2515C14.0526 16.7746 13.7351 15.1032 12.966 13.1072ZM15.0539 16.7528C16.2811 15.9258 17.1527 14.6126 17.3959 13.0916C17.2834 13.0554 15.7542 12.572 13.9901 12.8544C14.707 14.8217 14.9983 16.4239 15.0539 16.7528ZM13.1757 10.919C13.3026 11.1793 13.4254 11.4442 13.5388 11.7104C13.5792 11.8059 13.6185 11.8995 13.657 11.9931C15.5346 11.7572 17.3843 12.1542 17.4634 12.1704C17.4509 10.8766 16.9874 9.68914 16.2206 8.75952C16.2102 8.77415 15.3336 10.039 13.1757 10.919Z" fill="white"/>
</g>
</svg>
