<svg width="24" height="25" viewBox="0 0 24 25" fill="none" xmlns="http://www.w3.org/2000/svg">
<g id="Social Icons / White / Instagram">
<path id="BG" opacity="0.1" fill-rule="evenodd" clip-rule="evenodd" d="M0 12.2354C0 5.60793 5.37258 0.235352 12 0.235352C18.6274 0.235352 24 5.60793 24 12.2354C24 18.8628 18.6274 24.2354 12 24.2354C5.37258 24.2354 0 18.8628 0 12.2354Z" fill="white"/>
<path id="Path" fill-rule="evenodd" clip-rule="evenodd" d="M12.0006 5.83545C10.2624 5.83545 10.0443 5.84305 9.36161 5.87412C8.68027 5.90532 8.2152 6.01318 7.80827 6.17145C7.38733 6.33492 7.03026 6.55359 6.67452 6.90946C6.31852 7.2652 6.09985 7.62227 5.93585 8.04307C5.77718 8.45014 5.66918 8.91535 5.63851 9.59642C5.60798 10.2791 5.59998 10.4974 5.59998 12.2355C5.59998 13.9737 5.60771 14.1911 5.63864 14.8738C5.66998 15.5551 5.77784 16.0202 5.93598 16.4272C6.09958 16.8481 6.31825 17.2052 6.67412 17.5609C7.02972 17.9169 7.38679 18.1361 7.80747 18.2996C8.21467 18.4578 8.67987 18.5657 9.36108 18.5969C10.0438 18.628 10.2618 18.6356 11.9998 18.6356C13.7381 18.6356 13.9555 18.628 14.6382 18.5969C15.3195 18.5657 15.7851 18.4578 16.1924 18.2996C16.6132 18.1361 16.9697 17.9169 17.3253 17.5609C17.6813 17.2052 17.9 16.8481 18.064 16.4273C18.2213 16.0202 18.3293 15.555 18.3613 14.8739C18.392 14.1913 18.4 13.9737 18.4 12.2355C18.4 10.4974 18.392 10.2792 18.3613 9.59655C18.3293 8.91521 18.2213 8.45014 18.064 8.04321C17.9 7.62227 17.6813 7.2652 17.3253 6.90946C16.9693 6.55346 16.6133 6.33479 16.192 6.17145C15.7839 6.01318 15.3186 5.90532 14.6373 5.87412C13.9546 5.84305 13.7373 5.83545 11.9986 5.83545H12.0006ZM11.4264 6.98878C11.5968 6.98851 11.7869 6.98878 12.0005 6.98878C13.7094 6.98878 13.9119 6.99491 14.5867 7.02558C15.2107 7.05411 15.5494 7.15838 15.775 7.24598C16.0737 7.36198 16.2866 7.50065 16.5105 7.72465C16.7345 7.94865 16.8731 8.16199 16.9894 8.46066C17.077 8.68599 17.1814 9.02466 17.2098 9.64867C17.2405 10.3233 17.2471 10.526 17.2471 12.234C17.2471 13.942 17.2405 14.1447 17.2098 14.8194C17.1813 15.4434 17.077 15.7821 16.9894 16.0074C16.8734 16.3061 16.7345 16.5187 16.5105 16.7426C16.2865 16.9666 16.0738 17.1053 15.775 17.2213C15.5497 17.3093 15.2107 17.4133 14.5867 17.4418C13.912 17.4725 13.7094 17.4792 12.0005 17.4792C10.2916 17.4792 10.0891 17.4725 9.41439 17.4418C8.79038 17.413 8.45171 17.3088 8.22598 17.2211C7.92731 17.1051 7.71397 16.9665 7.48997 16.7425C7.26597 16.5185 7.1273 16.3057 7.01103 16.0069C6.92343 15.7815 6.81903 15.4429 6.79063 14.8189C6.75996 14.1442 6.75383 13.9415 6.75383 12.2324C6.75383 10.5233 6.75996 10.3217 6.79063 9.64707C6.81916 9.02306 6.92343 8.68439 7.01103 8.45879C7.12703 8.16012 7.26597 7.94679 7.48997 7.72278C7.71397 7.49878 7.92731 7.36011 8.22598 7.24385C8.45158 7.15584 8.79038 7.05184 9.41439 7.02318C10.0048 6.99651 10.2336 6.98851 11.4264 6.98718V6.98878ZM15.4169 8.05146C14.9928 8.05146 14.6488 8.39506 14.6488 8.8192C14.6488 9.2432 14.9928 9.58721 15.4169 9.58721C15.8409 9.58721 16.1849 9.2432 16.1849 8.8192C16.1849 8.39519 15.8409 8.05146 15.4169 8.05146ZM12.0006 8.9488C10.1855 8.9488 8.71389 10.4204 8.71389 12.2355C8.71389 14.0506 10.1855 15.5215 12.0006 15.5215C13.8157 15.5215 15.2868 14.0506 15.2868 12.2355C15.2868 10.4204 13.8157 8.9488 12.0006 8.9488ZM12.0006 10.1021C13.1787 10.1021 14.1339 11.0572 14.1339 12.2355C14.1339 13.4136 13.1787 14.3689 12.0006 14.3689C10.8223 14.3689 9.86721 13.4136 9.86721 12.2355C9.86721 11.0572 10.8223 10.1021 12.0006 10.1021Z" fill="white"/>
</g>
</svg>
