<svg width="24" height="25" viewBox="0 0 24 25" fill="none" xmlns="http://www.w3.org/2000/svg">
<g id="Social Icons / White / Twitter">
<path id="BG" opacity="0.1" fill-rule="evenodd" clip-rule="evenodd" d="M0 12.2354C0 5.60793 5.37258 0.235352 12 0.235352C18.6274 0.235352 24 5.60793 24 12.2354C24 18.8628 18.6274 24.2354 12 24.2354C5.37258 24.2354 0 18.8628 0 12.2354Z" fill="white"/>
<path id="Path" fill-rule="evenodd" clip-rule="evenodd" d="M11.6406 9.98905L11.6658 10.4043L11.2461 10.3534C9.71843 10.1585 8.38383 9.49756 7.25067 8.38746L6.69668 7.83665L6.55399 8.2434C6.25181 9.15012 6.44487 10.1077 7.0744 10.7517C7.41015 11.1076 7.33461 11.1585 6.75544 10.9466C6.55399 10.8788 6.37772 10.828 6.36093 10.8534C6.30218 10.9127 6.50363 11.6839 6.66311 11.9889C6.88134 12.4126 7.32621 12.8279 7.81305 13.0736L8.22434 13.2685L7.73751 13.277C7.26746 13.277 7.25067 13.2854 7.30103 13.4634C7.46891 14.0142 8.13201 14.5989 8.87066 14.8531L9.39108 15.0311L8.93781 15.3023C8.26631 15.6921 7.4773 15.9124 6.68829 15.9293C6.31057 15.9378 6 15.9717 6 15.9971C6 16.0819 7.02404 16.5564 7.61999 16.7428C9.40786 17.2937 11.5315 17.0564 13.1263 16.1158C14.2595 15.4463 15.3926 14.1159 15.9214 12.8279C16.2068 12.1415 16.4922 10.8873 16.4922 10.2856C16.4922 9.89584 16.5174 9.84499 16.9874 9.37892C17.2644 9.10775 17.5246 8.81116 17.575 8.72642C17.6589 8.56542 17.6505 8.56542 17.2224 8.70948C16.509 8.9637 16.4083 8.9298 16.7608 8.54847C17.021 8.2773 17.3316 7.78581 17.3316 7.64175C17.3316 7.61633 17.2057 7.6587 17.063 7.73496C16.9119 7.8197 16.5761 7.94681 16.3243 8.02308L15.8711 8.16714L15.4598 7.8875C15.2331 7.73496 14.9142 7.56548 14.7463 7.51464C14.3182 7.396 13.6635 7.41295 13.2774 7.54853C12.2282 7.92987 11.5651 8.91285 11.6406 9.98905Z" fill="white"/>
</g>
</svg>
