<svg width="24" height="25" viewBox="0 0 24 25" fill="none" xmlns="http://www.w3.org/2000/svg">
<g id="Social Icons / White / Youtube">
<path id="BG" opacity="0.1" fill-rule="evenodd" clip-rule="evenodd" d="M0 12.2354C0 5.60793 5.37258 0.235352 12 0.235352C18.6274 0.235352 24 5.60793 24 12.2354C24 18.8628 18.6274 24.2354 12 24.2354C5.37258 24.2354 0 18.8628 0 12.2354Z" fill="white"/>
<path id="Path" fill-rule="evenodd" clip-rule="evenodd" d="M17.0008 8.11011C17.5515 8.26125 17.9853 8.70656 18.1325 9.27206C18.4 10.297 18.4 12.4354 18.4 12.4354C18.4 12.4354 18.4 14.5739 18.1325 15.5988C17.9853 16.1643 17.5515 16.6097 17.0008 16.7609C16.0027 17.0354 12 17.0354 12 17.0354C12 17.0354 7.99728 17.0354 6.9991 16.7609C6.44834 16.6097 6.01459 16.1643 5.86739 15.5988C5.59998 14.5739 5.59998 12.4354 5.59998 12.4354C5.59998 12.4354 5.59998 10.297 5.86739 9.27206C6.01459 8.70656 6.44834 8.26125 6.9991 8.11011C7.99728 7.83545 12 7.83545 12 7.83545C12 7.83545 16.0027 7.83545 17.0008 8.11011ZM10.8 10.6354V14.6354L14 12.6355L10.8 10.6354Z" fill="white"/>
</g>
</svg>
